<?xml version="1.0" standalone="no"?>
<!DOCTYPE svg PUBLIC "-//W3C//DTD SVG 20010904//EN"
 "http://www.w3.org/TR/2001/REC-SVG-20010904/DTD/svg10.dtd">
<svg version="1.0" xmlns="http://www.w3.org/2000/svg"
 width="512.000000pt" height="512.000000pt" viewBox="0 0 512.000000 512.000000"
 preserveAspectRatio="xMidYMid meet">

<g transform="translate(0.000000,512.000000) scale(0.100000,-0.100000)"
fill="#000000" stroke="none">
<path d="M1071 5104 c-123 -33 -237 -130 -294 -251 l-32 -68 -3 -795 -3 -795
-193 -195 c-299 -302 -288 -265 -284 -933 3 -471 4 -483 26 -541 37 -98 79
-154 245 -322 l158 -162 -57 -474 c-33 -271 -54 -486 -50 -501 8 -32 59 -67
98 -67 34 0 85 43 92 78 4 15 33 248 66 519 47 385 58 498 49 520 -6 15 -95
114 -198 218 -154 155 -191 199 -207 240 -18 47 -19 82 -19 525 l0 475 28 59
c20 43 56 89 129 163 56 56 105 103 109 103 5 0 9 -174 11 -387 l3 -388 30
-53 c35 -64 71 -97 143 -130 45 -20 65 -23 130 -20 94 4 157 33 213 96 70 80
72 93 78 502 7 404 5 397 75 439 90 54 195 22 245 -76 8 -15 11 -237 11 -771
0 -851 5 -793 -87 -915 -29 -39 -56 -81 -59 -92 -2 -11 -3 -251 -2 -533 l3
-514 33 -29 c36 -32 69 -36 111 -15 51 27 51 31 51 547 l0 480 49 69 c44 64
81 144 95 213 l6 27 791 0 c872 0 831 -3 863 64 14 31 16 122 16 935 l0 901
110 0 110 0 0 -355 0 -355 29 -32 29 -33 254 -3 c139 -2 267 -1 284 3 18 3 44
17 58 32 l26 26 0 358 0 359 160 0 c173 0 214 9 244 51 39 56 37 59 -310 526
-179 241 -343 455 -364 476 l-39 37 -181 0 -180 0 0 356 c0 224 -4 362 -10
375 -27 49 -29 49 -639 49 l-569 0 -30 -25 c-37 -31 -48 -75 -32 -116 24 -56
42 -59 345 -59 l275 0 0 -290 0 -290 -175 0 c-189 0 -217 -6 -241 -51 -32 -64
-34 -62 316 -529 l330 -442 0 -484 0 -484 -730 0 -730 0 0 239 c0 131 -5 262
-10 292 -22 118 -99 218 -208 271 -60 30 -75 33 -157 33 -82 0 -97 -3 -157
-33 -83 -40 -158 -119 -190 -200 -22 -55 -23 -71 -28 -420 l-5 -364 -28 -24
c-40 -34 -90 -32 -128 5 l-29 29 0 1264 c0 839 4 1275 10 1300 16 56 69 119
125 147 49 26 51 26 363 31 l314 5 24 28 c36 42 33 90 -10 133 l-34 34 -303
-1 c-233 0 -317 -4 -358 -15z m2499 -535 c0 -312 2 -354 17 -380 9 -15 24 -32
32 -36 9 -4 75 -10 147 -13 l130 -5 -223 -300 c-123 -165 -228 -300 -233 -300
-5 0 -110 135 -233 300 l-223 300 134 5 134 5 29 33 29 32 0 355 0 355 130 0
130 0 0 -351z m761 -809 l220 -295 -119 -5 c-129 -5 -164 -18 -182 -66 -6 -14
-10 -175 -10 -370 l0 -344 -140 0 -140 0 0 344 c0 195 -4 356 -10 370 -18 48
-53 61 -182 66 l-119 5 223 298 c122 163 226 296 231 294 4 -1 107 -135 228
-297z m-991 -1715 l0 -105 -732 2 -733 3 -3 103 -3 102 736 0 735 0 0 -105z
m0 -400 l0 -95 -735 0 -735 0 0 95 0 95 735 0 735 0 0 -95z"/>
<path d="M2091 5106 c-31 -17 -50 -53 -51 -94 0 -45 46 -92 90 -92 101 0 145
110 68 175 -32 27 -70 31 -107 11z"/>
</g>
</svg>
